<mxfile host="app.diagrams.net" agent="Mozilla/5.0 (Macintosh; Intel Mac OS X 10_15_7) AppleWebKit/537.36 (KHTML, like Gecko) Chrome/134.0.0.0 Safari/537.36" version="26.0.4">
  <diagram name="Page-1" id="OuMtxg74HjVi-x-dxH5C">
    <mxGraphModel dx="2405" dy="871" grid="1" gridSize="10" guides="1" tooltips="1" connect="1" arrows="1" fold="1" page="1" pageScale="1" pageWidth="827" pageHeight="1169" math="0" shadow="0">
      <root>
        <mxCell id="0" />
        <mxCell id="1" parent="0" />
        <mxCell id="ACHTH9EjudBSf4j1NXEr-1" style="edgeStyle=orthogonalEdgeStyle;rounded=0;orthogonalLoop=1;jettySize=auto;html=1;" edge="1" parent="1" source="xmKtAeigKxc1TSvzVXQp-23" target="xmKtAeigKxc1TSvzVXQp-29">
          <mxGeometry relative="1" as="geometry" />
        </mxCell>
        <mxCell id="xmKtAeigKxc1TSvzVXQp-23" value="" style="whiteSpace=wrap;html=1;aspect=fixed;" parent="1" vertex="1">
          <mxGeometry x="706" y="1904.92" width="575.08" height="575.08" as="geometry" />
        </mxCell>
        <mxCell id="gVkeO_0IxKsSzu1mOyWm-80" style="edgeStyle=orthogonalEdgeStyle;rounded=0;orthogonalLoop=1;jettySize=auto;html=1;" parent="1" source="gVkeO_0IxKsSzu1mOyWm-50" target="gVkeO_0IxKsSzu1mOyWm-78" edge="1">
          <mxGeometry relative="1" as="geometry" />
        </mxCell>
        <mxCell id="gVkeO_0IxKsSzu1mOyWm-50" value="&lt;b&gt;Writing Code&lt;/b&gt;" style="whiteSpace=wrap;html=1;aspect=fixed;" parent="1" vertex="1">
          <mxGeometry x="-290" y="725" width="80" height="80" as="geometry" />
        </mxCell>
        <mxCell id="gVkeO_0IxKsSzu1mOyWm-64" style="edgeStyle=orthogonalEdgeStyle;rounded=0;orthogonalLoop=1;jettySize=auto;html=1;" parent="1" source="gVkeO_0IxKsSzu1mOyWm-61" target="gVkeO_0IxKsSzu1mOyWm-63" edge="1">
          <mxGeometry relative="1" as="geometry" />
        </mxCell>
        <mxCell id="gVkeO_0IxKsSzu1mOyWm-61" value="&lt;b&gt;Writing Code&lt;/b&gt;" style="whiteSpace=wrap;html=1;aspect=fixed;" parent="1" vertex="1">
          <mxGeometry x="-290" y="40" width="80" height="80" as="geometry" />
        </mxCell>
        <mxCell id="gVkeO_0IxKsSzu1mOyWm-68" style="edgeStyle=orthogonalEdgeStyle;rounded=0;orthogonalLoop=1;jettySize=auto;html=1;entryX=0;entryY=0.5;entryDx=0;entryDy=0;" parent="1" source="gVkeO_0IxKsSzu1mOyWm-63" target="gVkeO_0IxKsSzu1mOyWm-67" edge="1">
          <mxGeometry relative="1" as="geometry" />
        </mxCell>
        <mxCell id="gVkeO_0IxKsSzu1mOyWm-63" value="Finished Writing Code" style="rounded=1;whiteSpace=wrap;html=1;" parent="1" vertex="1">
          <mxGeometry x="-80" y="50" width="120" height="60" as="geometry" />
        </mxCell>
        <mxCell id="gVkeO_0IxKsSzu1mOyWm-70" style="edgeStyle=orthogonalEdgeStyle;rounded=0;orthogonalLoop=1;jettySize=auto;html=1;" parent="1" source="gVkeO_0IxKsSzu1mOyWm-67" edge="1">
          <mxGeometry relative="1" as="geometry">
            <mxPoint x="330" y="80" as="targetPoint" />
          </mxGeometry>
        </mxCell>
        <mxCell id="gVkeO_0IxKsSzu1mOyWm-67" value="&lt;b&gt;In Code Review&lt;/b&gt;" style="whiteSpace=wrap;html=1;aspect=fixed;" parent="1" vertex="1">
          <mxGeometry x="140" y="40" width="80" height="80" as="geometry" />
        </mxCell>
        <mxCell id="gVkeO_0IxKsSzu1mOyWm-72" style="edgeStyle=orthogonalEdgeStyle;rounded=0;orthogonalLoop=1;jettySize=auto;html=1;entryX=0;entryY=0.5;entryDx=0;entryDy=0;" parent="1" source="gVkeO_0IxKsSzu1mOyWm-71" target="gVkeO_0IxKsSzu1mOyWm-73" edge="1">
          <mxGeometry relative="1" as="geometry">
            <mxPoint x="560" y="80" as="targetPoint" />
          </mxGeometry>
        </mxCell>
        <mxCell id="gVkeO_0IxKsSzu1mOyWm-71" value="Finished Code Review" style="rounded=1;whiteSpace=wrap;html=1;" parent="1" vertex="1">
          <mxGeometry x="330" y="50" width="120" height="60" as="geometry" />
        </mxCell>
        <mxCell id="gVkeO_0IxKsSzu1mOyWm-73" value="&lt;b&gt;Satisified with Work&lt;/b&gt;" style="whiteSpace=wrap;html=1;aspect=fixed;" parent="1" vertex="1">
          <mxGeometry x="560" y="40" width="80" height="80" as="geometry" />
        </mxCell>
        <mxCell id="gVkeO_0IxKsSzu1mOyWm-77" style="edgeStyle=orthogonalEdgeStyle;rounded=0;orthogonalLoop=1;jettySize=auto;html=1;entryX=0;entryY=0.5;entryDx=0;entryDy=0;" parent="1" source="gVkeO_0IxKsSzu1mOyWm-78" target="gVkeO_0IxKsSzu1mOyWm-79" edge="1">
          <mxGeometry relative="1" as="geometry" />
        </mxCell>
        <mxCell id="gVkeO_0IxKsSzu1mOyWm-78" value="Finished Writing Code" style="rounded=1;whiteSpace=wrap;html=1;" parent="1" vertex="1">
          <mxGeometry x="-110" y="735" width="120" height="60" as="geometry" />
        </mxCell>
        <mxCell id="gVkeO_0IxKsSzu1mOyWm-79" value="&lt;b&gt;In Code Review&lt;/b&gt;" style="whiteSpace=wrap;html=1;aspect=fixed;" parent="1" vertex="1">
          <mxGeometry x="110" y="725" width="80" height="80" as="geometry" />
        </mxCell>
        <mxCell id="gVkeO_0IxKsSzu1mOyWm-89" style="edgeStyle=orthogonalEdgeStyle;rounded=0;orthogonalLoop=1;jettySize=auto;html=1;entryX=0;entryY=0.5;entryDx=0;entryDy=0;exitX=0.5;exitY=0;exitDx=0;exitDy=0;" parent="1" source="gVkeO_0IxKsSzu1mOyWm-81" target="gVkeO_0IxKsSzu1mOyWm-85" edge="1">
          <mxGeometry relative="1" as="geometry" />
        </mxCell>
        <mxCell id="gVkeO_0IxKsSzu1mOyWm-90" style="edgeStyle=orthogonalEdgeStyle;rounded=0;orthogonalLoop=1;jettySize=auto;html=1;entryX=0;entryY=0.5;entryDx=0;entryDy=0;exitX=0.5;exitY=1;exitDx=0;exitDy=0;" parent="1" source="gVkeO_0IxKsSzu1mOyWm-81" target="_tHCzICTnpLp-yMGqVA8-5" edge="1">
          <mxGeometry relative="1" as="geometry">
            <mxPoint x="764" y="1017.5" as="targetPoint" />
          </mxGeometry>
        </mxCell>
        <mxCell id="gVkeO_0IxKsSzu1mOyWm-81" value="Code Review Successful?" style="rhombus;whiteSpace=wrap;html=1;" parent="1" vertex="1">
          <mxGeometry x="650" y="720" width="100" height="90" as="geometry" />
        </mxCell>
        <mxCell id="gVkeO_0IxKsSzu1mOyWm-88" style="edgeStyle=orthogonalEdgeStyle;rounded=0;orthogonalLoop=1;jettySize=auto;html=1;entryX=0;entryY=0.5;entryDx=0;entryDy=0;" parent="1" source="gVkeO_0IxKsSzu1mOyWm-84" target="_tHCzICTnpLp-yMGqVA8-1" edge="1">
          <mxGeometry relative="1" as="geometry" />
        </mxCell>
        <mxCell id="gVkeO_0IxKsSzu1mOyWm-84" value="Finished Code Review" style="rounded=1;whiteSpace=wrap;html=1;" parent="1" vertex="1">
          <mxGeometry x="280" y="735" width="120" height="60" as="geometry" />
        </mxCell>
        <mxCell id="gVkeO_0IxKsSzu1mOyWm-85" value="&lt;b&gt;Satisified with Work&lt;/b&gt;" style="whiteSpace=wrap;html=1;aspect=fixed;" parent="1" vertex="1">
          <mxGeometry x="810" y="470" width="80" height="80" as="geometry" />
        </mxCell>
        <mxCell id="gVkeO_0IxKsSzu1mOyWm-86" style="edgeStyle=orthogonalEdgeStyle;rounded=0;orthogonalLoop=1;jettySize=auto;html=1;entryX=-0.05;entryY=0.5;entryDx=0;entryDy=0;entryPerimeter=0;" parent="1" source="gVkeO_0IxKsSzu1mOyWm-79" target="gVkeO_0IxKsSzu1mOyWm-84" edge="1">
          <mxGeometry relative="1" as="geometry" />
        </mxCell>
        <mxCell id="gVkeO_0IxKsSzu1mOyWm-96" style="edgeStyle=orthogonalEdgeStyle;rounded=0;orthogonalLoop=1;jettySize=auto;html=1;entryX=0;entryY=0.5;entryDx=0;entryDy=0;exitX=0.5;exitY=0;exitDx=0;exitDy=0;" parent="1" source="gVkeO_0IxKsSzu1mOyWm-94" target="gVkeO_0IxKsSzu1mOyWm-95" edge="1">
          <mxGeometry relative="1" as="geometry" />
        </mxCell>
        <mxCell id="gVkeO_0IxKsSzu1mOyWm-102" style="edgeStyle=orthogonalEdgeStyle;rounded=0;orthogonalLoop=1;jettySize=auto;html=1;entryX=0;entryY=0.5;entryDx=0;entryDy=0;exitX=0.5;exitY=1;exitDx=0;exitDy=0;" parent="1" source="gVkeO_0IxKsSzu1mOyWm-94" target="gVkeO_0IxKsSzu1mOyWm-100" edge="1">
          <mxGeometry relative="1" as="geometry" />
        </mxCell>
        <mxCell id="gVkeO_0IxKsSzu1mOyWm-94" value="Code Review Fair?" style="rhombus;whiteSpace=wrap;html=1;" parent="1" vertex="1">
          <mxGeometry x="1020" y="955" width="100" height="90" as="geometry" />
        </mxCell>
        <mxCell id="gVkeO_0IxKsSzu1mOyWm-95" value="&lt;b&gt;Crying with imposter syndrome&lt;/b&gt;" style="whiteSpace=wrap;html=1;aspect=fixed;" parent="1" vertex="1">
          <mxGeometry x="1120" y="820" width="80" height="80" as="geometry" />
        </mxCell>
        <mxCell id="gVkeO_0IxKsSzu1mOyWm-97" value="Yes" style="text;html=1;align=center;verticalAlign=middle;resizable=0;points=[];autosize=1;strokeColor=none;fillColor=none;" parent="1" vertex="1">
          <mxGeometry x="710" y="470" width="40" height="30" as="geometry" />
        </mxCell>
        <mxCell id="gVkeO_0IxKsSzu1mOyWm-98" value="No" style="text;html=1;align=center;verticalAlign=middle;resizable=0;points=[];autosize=1;strokeColor=none;fillColor=none;" parent="1" vertex="1">
          <mxGeometry x="700" y="1020" width="40" height="30" as="geometry" />
        </mxCell>
        <mxCell id="gVkeO_0IxKsSzu1mOyWm-99" value="Yes" style="text;html=1;align=center;verticalAlign=middle;resizable=0;points=[];autosize=1;strokeColor=none;fillColor=none;" parent="1" vertex="1">
          <mxGeometry x="1060" y="827.5" width="40" height="30" as="geometry" />
        </mxCell>
        <mxCell id="gVkeO_0IxKsSzu1mOyWm-100" value="&lt;b&gt;Crying with rage&lt;/b&gt;" style="whiteSpace=wrap;html=1;aspect=fixed;" parent="1" vertex="1">
          <mxGeometry x="1120" y="1087.5" width="80" height="80" as="geometry" />
        </mxCell>
        <mxCell id="gVkeO_0IxKsSzu1mOyWm-103" value="No" style="text;html=1;align=center;verticalAlign=middle;resizable=0;points=[];autosize=1;strokeColor=none;fillColor=none;" parent="1" vertex="1">
          <mxGeometry x="1060" y="1126.5" width="40" height="30" as="geometry" />
        </mxCell>
        <mxCell id="xmKtAeigKxc1TSvzVXQp-2" style="edgeStyle=orthogonalEdgeStyle;rounded=0;orthogonalLoop=1;jettySize=auto;html=1;" parent="1" source="xmKtAeigKxc1TSvzVXQp-3" target="xmKtAeigKxc1TSvzVXQp-5" edge="1">
          <mxGeometry relative="1" as="geometry" />
        </mxCell>
        <mxCell id="xmKtAeigKxc1TSvzVXQp-3" value="&lt;b&gt;Writing Code&lt;/b&gt;" style="whiteSpace=wrap;html=1;aspect=fixed;" parent="1" vertex="1">
          <mxGeometry x="-290" y="1894.92" width="80" height="80" as="geometry" />
        </mxCell>
        <mxCell id="xmKtAeigKxc1TSvzVXQp-4" style="edgeStyle=orthogonalEdgeStyle;rounded=0;orthogonalLoop=1;jettySize=auto;html=1;entryX=0;entryY=0.5;entryDx=0;entryDy=0;" parent="1" source="xmKtAeigKxc1TSvzVXQp-5" target="xmKtAeigKxc1TSvzVXQp-6" edge="1">
          <mxGeometry relative="1" as="geometry" />
        </mxCell>
        <mxCell id="xmKtAeigKxc1TSvzVXQp-5" value="Finished Writing Code" style="rounded=1;whiteSpace=wrap;html=1;" parent="1" vertex="1">
          <mxGeometry x="-110" y="1904.92" width="120" height="60" as="geometry" />
        </mxCell>
        <mxCell id="xmKtAeigKxc1TSvzVXQp-6" value="&lt;b&gt;In Code Review&lt;/b&gt;" style="whiteSpace=wrap;html=1;aspect=fixed;" parent="1" vertex="1">
          <mxGeometry x="110" y="1894.92" width="80" height="80" as="geometry" />
        </mxCell>
        <mxCell id="xmKtAeigKxc1TSvzVXQp-7" style="edgeStyle=orthogonalEdgeStyle;rounded=0;orthogonalLoop=1;jettySize=auto;html=1;entryX=0;entryY=0.5;entryDx=0;entryDy=0;exitX=0.5;exitY=0;exitDx=0;exitDy=0;" parent="1" source="xmKtAeigKxc1TSvzVXQp-9" target="xmKtAeigKxc1TSvzVXQp-12" edge="1">
          <mxGeometry relative="1" as="geometry" />
        </mxCell>
        <mxCell id="xmKtAeigKxc1TSvzVXQp-8" style="edgeStyle=orthogonalEdgeStyle;rounded=0;orthogonalLoop=1;jettySize=auto;html=1;entryX=0;entryY=0.5;entryDx=0;entryDy=0;exitX=0.5;exitY=1;exitDx=0;exitDy=0;" parent="1" source="xmKtAeigKxc1TSvzVXQp-9" target="_tHCzICTnpLp-yMGqVA8-3" edge="1">
          <mxGeometry relative="1" as="geometry">
            <mxPoint x="604" y="2187.42" as="targetPoint" />
          </mxGeometry>
        </mxCell>
        <mxCell id="xmKtAeigKxc1TSvzVXQp-9" value="Code Review Successful?" style="rhombus;whiteSpace=wrap;html=1;" parent="1" vertex="1">
          <mxGeometry x="490" y="1889.92" width="100" height="90" as="geometry" />
        </mxCell>
        <mxCell id="xmKtAeigKxc1TSvzVXQp-10" style="edgeStyle=orthogonalEdgeStyle;rounded=0;orthogonalLoop=1;jettySize=auto;html=1;entryX=0;entryY=0.5;entryDx=0;entryDy=0;" parent="1" source="xmKtAeigKxc1TSvzVXQp-11" target="xmKtAeigKxc1TSvzVXQp-9" edge="1">
          <mxGeometry relative="1" as="geometry" />
        </mxCell>
        <mxCell id="xmKtAeigKxc1TSvzVXQp-11" value="Finished Code Review" style="rounded=1;whiteSpace=wrap;html=1;" parent="1" vertex="1">
          <mxGeometry x="280" y="1904.92" width="120" height="60" as="geometry" />
        </mxCell>
        <mxCell id="xmKtAeigKxc1TSvzVXQp-26" style="edgeStyle=orthogonalEdgeStyle;rounded=0;orthogonalLoop=1;jettySize=auto;html=1;entryX=0.5;entryY=0;entryDx=0;entryDy=0;" parent="1" source="xmKtAeigKxc1TSvzVXQp-12" target="xmKtAeigKxc1TSvzVXQp-25" edge="1">
          <mxGeometry relative="1" as="geometry">
            <Array as="points">
              <mxPoint x="690" y="1559.92" />
              <mxPoint x="-250" y="1559.92" />
            </Array>
          </mxGeometry>
        </mxCell>
        <mxCell id="xmKtAeigKxc1TSvzVXQp-12" value="&lt;b&gt;Satisified with Work&lt;/b&gt;" style="whiteSpace=wrap;html=1;aspect=fixed;" parent="1" vertex="1">
          <mxGeometry x="650" y="1639.92" width="80" height="80" as="geometry" />
        </mxCell>
        <mxCell id="xmKtAeigKxc1TSvzVXQp-13" style="edgeStyle=orthogonalEdgeStyle;rounded=0;orthogonalLoop=1;jettySize=auto;html=1;entryX=-0.05;entryY=0.5;entryDx=0;entryDy=0;entryPerimeter=0;" parent="1" source="xmKtAeigKxc1TSvzVXQp-6" target="xmKtAeigKxc1TSvzVXQp-11" edge="1">
          <mxGeometry relative="1" as="geometry" />
        </mxCell>
        <mxCell id="xmKtAeigKxc1TSvzVXQp-14" style="edgeStyle=orthogonalEdgeStyle;rounded=0;orthogonalLoop=1;jettySize=auto;html=1;entryX=0;entryY=0.5;entryDx=0;entryDy=0;exitX=0.5;exitY=0;exitDx=0;exitDy=0;" parent="1" source="xmKtAeigKxc1TSvzVXQp-16" target="xmKtAeigKxc1TSvzVXQp-17" edge="1">
          <mxGeometry relative="1" as="geometry" />
        </mxCell>
        <mxCell id="xmKtAeigKxc1TSvzVXQp-15" style="edgeStyle=orthogonalEdgeStyle;rounded=0;orthogonalLoop=1;jettySize=auto;html=1;entryX=0;entryY=0.5;entryDx=0;entryDy=0;exitX=0.5;exitY=1;exitDx=0;exitDy=0;" parent="1" source="xmKtAeigKxc1TSvzVXQp-16" target="xmKtAeigKxc1TSvzVXQp-21" edge="1">
          <mxGeometry relative="1" as="geometry" />
        </mxCell>
        <mxCell id="xmKtAeigKxc1TSvzVXQp-16" value="Code Review Fair?" style="rhombus;whiteSpace=wrap;html=1;" parent="1" vertex="1">
          <mxGeometry x="890" y="2132.5" width="100" height="90" as="geometry" />
        </mxCell>
        <mxCell id="xmKtAeigKxc1TSvzVXQp-17" value="&lt;b&gt;Crying with imposter syndrome&lt;/b&gt;" style="whiteSpace=wrap;html=1;aspect=fixed;" parent="1" vertex="1">
          <mxGeometry x="996" y="2000" width="80" height="80" as="geometry" />
        </mxCell>
        <mxCell id="xmKtAeigKxc1TSvzVXQp-18" value="Yes" style="text;html=1;align=center;verticalAlign=middle;resizable=0;points=[];autosize=1;strokeColor=none;fillColor=none;" parent="1" vertex="1">
          <mxGeometry x="550" y="1639.92" width="40" height="30" as="geometry" />
        </mxCell>
        <mxCell id="xmKtAeigKxc1TSvzVXQp-19" value="No" style="text;html=1;align=center;verticalAlign=middle;resizable=0;points=[];autosize=1;strokeColor=none;fillColor=none;" parent="1" vertex="1">
          <mxGeometry x="540" y="2189.92" width="40" height="30" as="geometry" />
        </mxCell>
        <mxCell id="xmKtAeigKxc1TSvzVXQp-20" value="Yes" style="text;html=1;align=center;verticalAlign=middle;resizable=0;points=[];autosize=1;strokeColor=none;fillColor=none;" parent="1" vertex="1">
          <mxGeometry x="936" y="2007.5" width="40" height="30" as="geometry" />
        </mxCell>
        <mxCell id="xmKtAeigKxc1TSvzVXQp-21" value="&lt;b&gt;Crying with rage&lt;/b&gt;" style="whiteSpace=wrap;html=1;aspect=fixed;" parent="1" vertex="1">
          <mxGeometry x="996" y="2267.5" width="80" height="80" as="geometry" />
        </mxCell>
        <mxCell id="xmKtAeigKxc1TSvzVXQp-22" value="No" style="text;html=1;align=center;verticalAlign=middle;resizable=0;points=[];autosize=1;strokeColor=none;fillColor=none;" parent="1" vertex="1">
          <mxGeometry x="936" y="2306.5" width="40" height="30" as="geometry" />
        </mxCell>
        <mxCell id="xmKtAeigKxc1TSvzVXQp-27" style="edgeStyle=orthogonalEdgeStyle;rounded=0;orthogonalLoop=1;jettySize=auto;html=1;" parent="1" source="xmKtAeigKxc1TSvzVXQp-25" target="xmKtAeigKxc1TSvzVXQp-3" edge="1">
          <mxGeometry relative="1" as="geometry" />
        </mxCell>
        <mxCell id="xmKtAeigKxc1TSvzVXQp-25" value="Picked up new ticket" style="rounded=1;whiteSpace=wrap;html=1;" parent="1" vertex="1">
          <mxGeometry x="-310" y="1659.92" width="120" height="60" as="geometry" />
        </mxCell>
        <mxCell id="xmKtAeigKxc1TSvzVXQp-39" style="edgeStyle=orthogonalEdgeStyle;rounded=0;orthogonalLoop=1;jettySize=auto;html=1;entryX=0;entryY=0.5;entryDx=0;entryDy=0;" parent="1" source="xmKtAeigKxc1TSvzVXQp-29" target="xmKtAeigKxc1TSvzVXQp-38" edge="1">
          <mxGeometry relative="1" as="geometry" />
        </mxCell>
        <mxCell id="xmKtAeigKxc1TSvzVXQp-29" value="Attempted to compose yourself" style="rounded=1;whiteSpace=wrap;html=1;" parent="1" vertex="1">
          <mxGeometry x="850.29" y="2605" width="120" height="60" as="geometry" />
        </mxCell>
        <mxCell id="xmKtAeigKxc1TSvzVXQp-30" value="&lt;b&gt;Crying&lt;/b&gt;" style="text;html=1;align=center;verticalAlign=middle;whiteSpace=wrap;rounded=0;" parent="1" vertex="1">
          <mxGeometry x="964" y="1935.92" width="60" height="30" as="geometry" />
        </mxCell>
        <mxCell id="ACHTH9EjudBSf4j1NXEr-2" style="edgeStyle=orthogonalEdgeStyle;rounded=0;orthogonalLoop=1;jettySize=auto;html=1;entryX=0;entryY=0.5;entryDx=0;entryDy=0;" edge="1" parent="1" source="xmKtAeigKxc1TSvzVXQp-38" target="xmKtAeigKxc1TSvzVXQp-3">
          <mxGeometry relative="1" as="geometry">
            <mxPoint x="-170" y="2141.5384615384614" as="targetPoint" />
            <Array as="points">
              <mxPoint x="1150" y="2790" />
              <mxPoint x="-460" y="2790" />
              <mxPoint x="-460" y="1935" />
            </Array>
          </mxGeometry>
        </mxCell>
        <mxCell id="ACHTH9EjudBSf4j1NXEr-4" style="edgeStyle=orthogonalEdgeStyle;rounded=0;orthogonalLoop=1;jettySize=auto;html=1;entryX=0.5;entryY=1;entryDx=0;entryDy=0;" edge="1" parent="1" source="xmKtAeigKxc1TSvzVXQp-38" target="xmKtAeigKxc1TSvzVXQp-45">
          <mxGeometry relative="1" as="geometry" />
        </mxCell>
        <mxCell id="xmKtAeigKxc1TSvzVXQp-38" value="Composing successful?" style="rhombus;whiteSpace=wrap;html=1;" parent="1" vertex="1">
          <mxGeometry x="1100" y="2590" width="100" height="90" as="geometry" />
        </mxCell>
        <mxCell id="xmKtAeigKxc1TSvzVXQp-45" value="&lt;b&gt;Uncontrollable sobbing&lt;/b&gt;" style="whiteSpace=wrap;html=1;aspect=fixed;" parent="1" vertex="1">
          <mxGeometry x="1110" y="2137.5" width="80" height="80" as="geometry" />
        </mxCell>
        <mxCell id="_tHCzICTnpLp-yMGqVA8-2" style="edgeStyle=orthogonalEdgeStyle;rounded=0;orthogonalLoop=1;jettySize=auto;html=1;entryX=0;entryY=0.5;entryDx=0;entryDy=0;" parent="1" source="_tHCzICTnpLp-yMGqVA8-1" target="gVkeO_0IxKsSzu1mOyWm-81" edge="1">
          <mxGeometry relative="1" as="geometry" />
        </mxCell>
        <mxCell id="_tHCzICTnpLp-yMGqVA8-1" value="&lt;b&gt;Code Review Junction&lt;/b&gt;" style="whiteSpace=wrap;html=1;aspect=fixed;" parent="1" vertex="1">
          <mxGeometry x="470" y="725" width="80" height="80" as="geometry" />
        </mxCell>
        <mxCell id="_tHCzICTnpLp-yMGqVA8-4" style="edgeStyle=orthogonalEdgeStyle;rounded=0;orthogonalLoop=1;jettySize=auto;html=1;entryX=0;entryY=0.5;entryDx=0;entryDy=0;" parent="1" source="_tHCzICTnpLp-yMGqVA8-3" target="xmKtAeigKxc1TSvzVXQp-16" edge="1">
          <mxGeometry relative="1" as="geometry" />
        </mxCell>
        <mxCell id="_tHCzICTnpLp-yMGqVA8-3" value="&lt;b&gt;Code Review Junction&lt;/b&gt;" style="whiteSpace=wrap;html=1;aspect=fixed;" parent="1" vertex="1">
          <mxGeometry x="720" y="2137.5" width="80" height="80" as="geometry" />
        </mxCell>
        <mxCell id="_tHCzICTnpLp-yMGqVA8-6" style="edgeStyle=orthogonalEdgeStyle;rounded=0;orthogonalLoop=1;jettySize=auto;html=1;entryX=0;entryY=0.5;entryDx=0;entryDy=0;" parent="1" source="_tHCzICTnpLp-yMGqVA8-5" target="gVkeO_0IxKsSzu1mOyWm-94" edge="1">
          <mxGeometry relative="1" as="geometry" />
        </mxCell>
        <mxCell id="_tHCzICTnpLp-yMGqVA8-5" value="&lt;b&gt;Code Review Junction&lt;/b&gt;" style="whiteSpace=wrap;html=1;aspect=fixed;" parent="1" vertex="1">
          <mxGeometry x="810" y="960" width="80" height="80" as="geometry" />
        </mxCell>
        <mxCell id="_tHCzICTnpLp-yMGqVA8-10" value="" style="shape=document;whiteSpace=wrap;html=1;boundedLbl=1;" parent="1" vertex="1">
          <mxGeometry x="-827" width="437" height="590" as="geometry" />
        </mxCell>
        <mxCell id="_tHCzICTnpLp-yMGqVA8-13" style="edgeStyle=orthogonalEdgeStyle;rounded=0;orthogonalLoop=1;jettySize=auto;html=1;exitX=1;exitY=0.5;exitDx=0;exitDy=0;" parent="1" source="_tHCzICTnpLp-yMGqVA8-11" target="_tHCzICTnpLp-yMGqVA8-12" edge="1">
          <mxGeometry relative="1" as="geometry" />
        </mxCell>
        <mxCell id="_tHCzICTnpLp-yMGqVA8-11" value="" style="whiteSpace=wrap;html=1;aspect=fixed;" parent="1" vertex="1">
          <mxGeometry x="-780" y="30" width="80" height="80" as="geometry" />
        </mxCell>
        <mxCell id="_tHCzICTnpLp-yMGqVA8-12" value="State" style="text;html=1;align=center;verticalAlign=middle;whiteSpace=wrap;rounded=0;" parent="1" vertex="1">
          <mxGeometry x="-540" y="55" width="60" height="30" as="geometry" />
        </mxCell>
        <mxCell id="_tHCzICTnpLp-yMGqVA8-16" style="edgeStyle=orthogonalEdgeStyle;rounded=0;orthogonalLoop=1;jettySize=auto;html=1;exitX=1;exitY=0.5;exitDx=0;exitDy=0;entryX=0;entryY=0.5;entryDx=0;entryDy=0;" parent="1" source="_tHCzICTnpLp-yMGqVA8-14" target="_tHCzICTnpLp-yMGqVA8-15" edge="1">
          <mxGeometry relative="1" as="geometry" />
        </mxCell>
        <mxCell id="_tHCzICTnpLp-yMGqVA8-14" value="" style="rounded=1;whiteSpace=wrap;html=1;" parent="1" vertex="1">
          <mxGeometry x="-800" y="170" width="120" height="60" as="geometry" />
        </mxCell>
        <mxCell id="_tHCzICTnpLp-yMGqVA8-15" value="Event" style="text;html=1;align=center;verticalAlign=middle;whiteSpace=wrap;rounded=0;" parent="1" vertex="1">
          <mxGeometry x="-550" y="185" width="60" height="30" as="geometry" />
        </mxCell>
        <mxCell id="_tHCzICTnpLp-yMGqVA8-19" style="edgeStyle=orthogonalEdgeStyle;rounded=0;orthogonalLoop=1;jettySize=auto;html=1;exitX=1;exitY=0.5;exitDx=0;exitDy=0;entryX=0;entryY=0.5;entryDx=0;entryDy=0;" parent="1" source="_tHCzICTnpLp-yMGqVA8-17" target="_tHCzICTnpLp-yMGqVA8-18" edge="1">
          <mxGeometry relative="1" as="geometry" />
        </mxCell>
        <mxCell id="_tHCzICTnpLp-yMGqVA8-17" value="" style="rhombus;whiteSpace=wrap;html=1;" parent="1" vertex="1">
          <mxGeometry x="-780" y="280" width="80" height="80" as="geometry" />
        </mxCell>
        <mxCell id="_tHCzICTnpLp-yMGqVA8-18" value="Junction" style="text;html=1;align=center;verticalAlign=middle;whiteSpace=wrap;rounded=0;" parent="1" vertex="1">
          <mxGeometry x="-560" y="305" width="60" height="30" as="geometry" />
        </mxCell>
        <mxCell id="ACHTH9EjudBSf4j1NXEr-3" value="Yes" style="text;html=1;align=center;verticalAlign=middle;resizable=0;points=[];autosize=1;strokeColor=none;fillColor=none;" vertex="1" parent="1">
          <mxGeometry x="930" y="2788" width="40" height="30" as="geometry" />
        </mxCell>
        <mxCell id="ACHTH9EjudBSf4j1NXEr-5" value="No" style="text;html=1;align=center;verticalAlign=middle;resizable=0;points=[];autosize=1;strokeColor=none;fillColor=none;" vertex="1" parent="1">
          <mxGeometry x="1120" y="2498" width="40" height="30" as="geometry" />
        </mxCell>
      </root>
    </mxGraphModel>
  </diagram>
</mxfile>
